<!--?xml version="1.0" encoding="utf-8"?-->
<!-- Generator: Adobe Illustrator 18.1.1, SVG Export Plug-In . SVG Version: 6.00 Build 0)  -->

<svg version="1.1" id="_x31_0" xmlns="http://www.w3.org/2000/svg" xmlns:xlink="http://www.w3.org/1999/xlink" x="0px" y="0px" viewBox="0 0 512 512" style="width: 256px; height: 256px; opacity: 1;" xml:space="preserve">
<style type="text/css">
	.st0{fill:#374149;}
</style>
<g>
	<path class="st0" d="M389.777,250.615c-67.319,0-121.881,54.566-121.881,121.885s54.562,121.881,121.881,121.881
		S511.658,439.819,511.658,372.5S457.096,250.615,389.777,250.615z M430.531,365.315l18.292-16.723v35.889l-59.046,54.477
		l-59.13-54.477l0.085-36.031l26.8,24.754l18.296,17.054v-0.146l0.158,0.142v-84.211h27.496v50.154l-0.108,33.946l0.108-0.1v0.211
		L430.531,365.315z" style="fill: rgb(75, 75, 75);"></path>
	<path class="st0" d="M261.934,466.311H54.85c-4.804,0-8.823-3.938-8.823-8.819V54.427c0-4.804,4.019-8.742,8.823-8.742h228.669
		c4.881,0,8.819,3.938,8.819,8.742v51.2c0,9.219,7.485,16.7,16.7,16.7h51.2c4.804,0,8.742,3.938,8.742,8.822v73.642l-0.023,10.327
		c0.008,0,0.015,0,0.023-0.004v0.162c6.777-0.946,13.785-1.419,20.796-1.419c7.97,0,15.719,0.612,23.338,1.781
		c0.458,0.081,0.938,0.104,1.397,0.189v-0.019c0.05,0.007,0.103,0.011,0.158,0.019v-99.485c0-4.493-1.735-8.666-4.885-11.815
		L310.142,4.881C306.993,1.73,302.815,0,298.327,0H17.042c-9.215,0-16.7,7.481-16.7,16.619V495.3c0,9.215,7.485,16.7,16.7,16.7
		h297.354C293.681,500.815,275.8,485.138,261.934,466.311z" style="fill: rgb(75, 75, 75);"></path>
	<path class="st0" d="M121.138,183.796h108.115c7.693,0,13.946-6.254,13.946-13.938c0-7.692-6.254-13.946-13.946-13.946H121.138
		c-7.692,0-13.946,6.254-13.946,13.946C107.193,177.542,113.446,183.796,121.138,183.796z" style="fill: rgb(75, 75, 75);"></path>
	<path class="st0" d="M293.915,242.058H121.173c-7.719,0-13.942,6.223-13.942,13.942c0,7.638,6.222,13.942,13.942,13.942h147.693
		c5.988-7.093,12.604-13.627,19.692-19.534c1.496-1.262,2.996-2.442,4.57-3.623c1.454-1.123,2.977-2.208,4.492-3.238
		c0.27-0.15,0.531-0.346,0.8-0.477c-0.03-0.016-0.077-0.008-0.107-0.023c0.058-0.038,0.115-0.085,0.173-0.123
		C297.066,242.292,295.493,242.058,293.915,242.058z" style="fill: rgb(75, 75, 75);"></path>
	<path class="st0" d="M121.173,323.977c-7.719,0-13.942,6.223-13.942,13.942c0,7.638,6.222,13.942,13.942,13.942h111.304
		c1.096-8.381,2.97-16.477,5.335-24.377c0.35-1.104,0.584-2.262,0.965-3.35h-0.042c0.016-0.05,0.023-0.107,0.042-0.158H121.173z" style="fill: rgb(75, 75, 75);"></path>
</g>
</svg>
